<svg xmlns="http://www.w3.org/2000/svg" xmlns:svg="http://www.w3.org/2000/svg" xmlns:xlink="http://www.w3.org/1999/xlink" version="1.0" height="567.1057666540146pt" width="731pt" viewBox="295 527 739 573.1057666540146" ><defs><style type="text/css">
            @font-face {
                font-family: 'noto_regular';
                src: url('https://app.creately.com/diagram/assets/fonts/noto/noto-regular.woff') format('woff'),
                     url('https://app.creately.com/diagram/assets/fonts/noto/noto-regular.woff2') format('woff2');
                font-weight: normal;
                font-style: normal;
            }
        p {
            margin: 0;
        }
        </style></defs><defs><style>
            span{ display: inline-block; }
        </style></defs><g id="1sdjukxkam"><g transform="translate(530 560)"><rect x="0" y="0" width="331.00000405311584" height="537.1057666540146" fill="rgba(255,255,255,1)" stroke="#000000" stroke-width="1.5" stroke-linecap="round" stroke-linejoin="round"/></g><g transform="translate(673.0000020265579, 570) rotate(0, 22.5, 0)" width="45" height="18"><text text-decoration="none" x="0.5" fill="rgb(84, 84, 84)" font-size="10pt" font-family="noto_regular"  y="17">System</text><text text-decoration="none" x="44.5" fill="#4b4b4b" font-size="10pt" font-family="noto_regular"  y="17"></text></g><g transform="translate(610.5000020265579, 530) rotate(0, 85, 25)" width="170" height="25"><text text-decoration="none" x="15" fill="rgb(0, 0, 0)" font-style="italic" font-weight="bold" font-size="16pt" font-family="Arial"  y="23">Voting&#160;</text><text text-decoration="none" x="83" fill="rgb(0, 0, 0)" font-style="italic" font-weight="bold" font-size="16pt" font-family="Arial"  y="23">System</text><text text-decoration="none" x="155" fill="#4b4b4b" font-size="10pt" font-family="noto_regular"  y="23"></text></g></g><g id="2qkc8o37td"><g transform="translate(300 750)"><ellipse cx="20.5" cy="10.125" rx="10.25" ry="10.125" fill="rgba(255,255,255,1)" stroke="#5e5ca7" stroke-width="1.5" stroke-linecap="round" stroke-linejoin="round"/><path d="M 20.5,20.25 L 20.5,48.6 L 41,81 M 20.5,48.6 L 0,81 M 2.0500000000000003,30.375 L 38.95,30.375" fill="none" stroke="#5e5ca7" stroke-width="1.5" stroke-linecap="round" stroke-linejoin="round"/><rect x="0" y="0" width="41" height="81" fill="rgba(255,255,255,0.01)" stroke="rgba(255,255,255,0.01)" stroke-width="1.5" stroke-linecap="round" stroke-linejoin="round"/></g><g transform="translate(305, 836) rotate(0, 15.5, 0)" width="31" height="19"><text text-decoration="none" x="0.5" fill="rgb(0, 0, 0)" font-size="9pt" font-family="Arial"  y="17">Voter</text><text text-decoration="none" x="30.5" fill="#4b4b4b" font-size="10pt" font-family="noto_regular"  y="17"></text></g></g><g id="2i6n4yodgq"><g transform="translate(990 745)"><ellipse cx="20.5" cy="10.125" rx="10.25" ry="10.125" fill="rgba(255,255,255,1)" stroke="#5e5ca7" stroke-width="1.5" stroke-linecap="round" stroke-linejoin="round"/><path d="M 20.5,20.25 L 20.5,48.6 L 41,81 M 20.5,48.6 L 0,81 M 2.0500000000000003,30.375 L 38.95,30.375" fill="none" stroke="#5e5ca7" stroke-width="1.5" stroke-linecap="round" stroke-linejoin="round"/><rect x="0" y="0" width="41" height="81" fill="rgba(255,255,255,0.01)" stroke="rgba(255,255,255,0.01)" stroke-width="1.5" stroke-linecap="round" stroke-linejoin="round"/></g><g transform="translate(991, 831) rotate(0, 19.5, 0)" width="39" height="19"><text text-decoration="none" x="1.5" fill="rgb(0, 0, 0)" font-size="9pt" font-family="Arial"  y="17">Admin</text><text text-decoration="none" x="37.5" fill="#4b4b4b" font-size="10pt" font-family="noto_regular"  y="17"></text></g></g><g id="7md3a7ktvr"><g transform="translate(620 565)"><ellipse cx="63.000001668930054" cy="30.5" rx="63.000001668930054" ry="30.5" fill="rgba(26,188,156,1)" stroke="#5e5ca7" stroke-width="1.5" stroke-linecap="round" stroke-linejoin="round"/></g><g transform="translate(663.50000166893, 586) rotate(0, 19.5, 9.5)" width="39" height="19"><text text-decoration="none" x="2" fill="rgb(0, 0, 0)" font-weight="bold" font-size="10pt" font-family="Arial"  y="17">Login</text><text text-decoration="none" x="37" fill="#4b4b4b" font-size="10pt" font-family="noto_regular"  y="17"></text></g></g><g id="5vsjwsj95c"><g transform="translate(725 1025)"><ellipse cx="65.24519991874695" cy="30.5" rx="65.24519991874695" ry="30.5" fill="rgba(26,188,156,1)" stroke="#5e5ca7" stroke-width="1.5" stroke-linecap="round" stroke-linejoin="round"/></g><g transform="translate(750.245199918747, 1046) rotate(0, 40, 9.5)" width="80" height="19"><text text-decoration="none" x="5.5" fill="rgb(0, 0, 0)" font-weight="bold" font-size="10pt" font-family="Arial"  y="17">Caste&#160;</text><text text-decoration="none" x="44.5" fill="rgb(0, 0, 0)" font-weight="bold" font-size="10pt" font-family="Arial"  y="17">Vote</text><text text-decoration="none" x="74.5" fill="#4b4b4b" font-size="10pt" font-family="noto_regular"  y="17"></text></g></g><g id="ddke9kusyc"><g><path d="M 340,780 L 620,595" fill="none" stroke="#5e5ca7" stroke-width="1.5" stroke-linecap="round" stroke-linejoin="round"/></g></g><g id="bd5qtwwh0i"><g><path d="M 340,780 L 735,1040" fill="none" stroke="#5e5ca7" stroke-width="1.5" stroke-linecap="round" stroke-linejoin="round"/></g></g><g id="2ay5rwttnv"><g><path d="M 990,775 L 740,610" fill="none" stroke="#5e5ca7" stroke-width="1.5" stroke-linecap="round" stroke-linejoin="round"/></g></g><g id="2q3kl8qs68"><g transform="translate(550 1020)"><ellipse cx="65.84483104944229" cy="30.5" rx="65.84483104944229" ry="30.5" fill="rgba(26,188,156,1)" stroke="#5e5ca7" stroke-width="1.5" stroke-linecap="round" stroke-linejoin="round"/></g><g transform="translate(569.8448310494423, 1041) rotate(0, 46, 9.5)" width="92" height="19"><text text-decoration="none" x="5" fill="rgb(0, 0, 0)" font-weight="bold" font-size="10pt" font-family="Arial"  y="17">Voter&#160;</text><text text-decoration="none" x="44" fill="rgb(0, 0, 0)" font-weight="bold" font-size="10pt" font-family="Arial"  y="17">Profile</text><text text-decoration="none" x="87" fill="#4b4b4b" font-size="10pt" font-family="noto_regular"  y="17"></text></g></g><g id="b7se5khwvq"><g><path d="M 340,780 L 560,1035" fill="none" stroke="#5e5ca7" stroke-width="1.5" stroke-linecap="round" stroke-linejoin="round"/></g></g><g id="16qsy84xcg"><g transform="translate(640 635)"><ellipse cx="60.49999910593033" cy="30.5" rx="60.49999910593033" ry="30.5" fill="rgba(26,188,156,1)" stroke="#5e5ca7" stroke-width="1.5" stroke-linecap="round" stroke-linejoin="round"/></g><g transform="translate(663.4999991059303, 648) rotate(0, 37, 17.5)" width="74" height="35"><text text-decoration="none" x="13" fill="rgb(0, 0, 0)" font-weight="bold" font-size="10pt" font-family="Arial"  y="14">Update&#160;</text><text text-decoration="none" x="3.5" fill="rgb(0, 0, 0)" font-weight="bold" font-size="10pt" font-family="Arial"  y="36">Candidate</text><text text-decoration="none" x="70.5" fill="#4b4b4b" font-size="10pt" font-family="noto_regular"  y="36"></text></g></g><g id="9nxv9i5pfp"><g><path d="M 990,775 L 755,680" fill="none" stroke="#5e5ca7" stroke-width="1.5" stroke-linecap="round" stroke-linejoin="round"/></g></g><g id="973xuv7zrv"><g transform="translate(675 945)"><ellipse cx="73.0000010728836" cy="30.5" rx="73.0000010728836" ry="30.5" fill="rgba(26,188,156,1)" stroke="#5e5ca7" stroke-width="1.5" stroke-linecap="round" stroke-linejoin="round"/></g><g transform="translate(683.0000010728836, 966) rotate(0, 65, 9.5)" width="130" height="19"><text text-decoration="none" x="7" fill="rgb(0, 0, 0)" font-weight="bold" font-size="10pt" font-family="Arial"  y="17">Generate&#160;</text><text text-decoration="none" x="72" fill="rgb(0, 0, 0)" font-weight="bold" font-size="10pt" font-family="Arial"  y="17">Reports</text><text text-decoration="none" x="123" fill="#4b4b4b" font-size="10pt" font-family="noto_regular"  y="17"></text></g></g><g id="223n3mmpze"><g><path d="M 990,775 L 810,960" fill="none" stroke="#5e5ca7" stroke-width="1.5" stroke-linecap="round" stroke-linejoin="round"/></g></g><g id="btbwg96iyk"><g transform="translate(705 865)"><ellipse cx="58.00000196695328" cy="30.5" rx="58.00000196695328" ry="30.5" fill="rgba(26,188,156,1)" stroke="#5e5ca7" stroke-width="1.5" stroke-linecap="round" stroke-linejoin="round"/></g><g transform="translate(718.5000019669533, 886) rotate(0, 44.5, 9.5)" width="89" height="19"><text text-decoration="none" x="4.5" fill="rgb(0, 0, 0)" font-weight="bold" font-size="10pt" font-family="Arial"  y="17">Filter&#160;</text><text text-decoration="none" x="42.5" fill="rgb(0, 0, 0)" font-weight="bold" font-size="10pt" font-family="Arial"  y="17">Result</text><text text-decoration="none" x="84.5" fill="#4b4b4b" font-size="10pt" font-family="noto_regular"  y="17"></text></g></g><g id="ijfgxj9aod"><g><path d="M 990,775 L 815,880" fill="none" stroke="#5e5ca7" stroke-width="1.5" stroke-linecap="round" stroke-linejoin="round"/></g></g><g id="2bh59ujmzd"><g transform="translate(565 855)"><ellipse cx="63.000001668930054" cy="30.5" rx="63.000001668930054" ry="30.5" fill="rgba(26,188,156,1)" stroke="#5e5ca7" stroke-width="1.5" stroke-linecap="round" stroke-linejoin="round"/></g><g transform="translate(575.50000166893, 876) rotate(0, 52.5, 9.5)" width="105" height="19"><text text-decoration="none" x="6.5" fill="rgb(0, 0, 0)" font-weight="bold" font-size="10pt" font-family="Arial"  y="17">Display&#160;</text><text text-decoration="none" x="56.5" fill="rgb(0, 0, 0)" font-weight="bold" font-size="10pt" font-family="Arial"  y="17">Voters</text><text text-decoration="none" x="98.5" fill="#4b4b4b" font-size="10pt" font-family="noto_regular"  y="17"></text></g></g><g id="1i2twms0w1"><g transform="translate(570 695)"><ellipse cx="63.000001668930054" cy="30.5" rx="63.000001668930054" ry="30.5" fill="rgba(26,188,156,1)" stroke="#5e5ca7" stroke-width="1.5" stroke-linecap="round" stroke-linejoin="round"/></g><g transform="translate(584.50000166893, 716) rotate(0, 48.5, 9.5)" width="97" height="19"><text text-decoration="none" x="5" fill="rgb(0, 0, 0)" font-weight="bold" font-size="10pt" font-family="Arial"  y="17">Update&#160;</text><text text-decoration="none" x="56" fill="rgb(0, 0, 0)" font-weight="bold" font-size="10pt" font-family="Arial"  y="17">Voter</text><text text-decoration="none" x="92" fill="#4b4b4b" font-size="10pt" font-family="noto_regular"  y="17"></text></g></g><g id="1j894lbea2"><g><path d="M 990,775 L 695,725" fill="none" stroke="#5e5ca7" stroke-width="1.5" stroke-linecap="round" stroke-linejoin="round"/></g></g><g id="1pp252gs75"><g><path d="M 990,775 L 685,870" fill="none" stroke="#5e5ca7" stroke-width="1.5" stroke-linecap="round" stroke-linejoin="round"/></g></g><g id="2snnaq6l3j"><g transform="translate(625 785)"><ellipse cx="63.000001668930054" cy="30.5" rx="63.000001668930054" ry="30.5" fill="rgba(26,188,156,1)" stroke="#5e5ca7" stroke-width="1.5" stroke-linecap="round" stroke-linejoin="round"/></g><g transform="translate(651.00000166893, 798) rotate(0, 37, 17.5)" width="74" height="35"><text text-decoration="none" x="13.5" fill="rgb(0, 0, 0)" font-weight="bold" font-size="10pt" font-family="Arial"  y="14">Display&#160;</text><text text-decoration="none" x="3.5" fill="rgb(0, 0, 0)" font-weight="bold" font-size="10pt" font-family="Arial"  y="36">Candidate</text><text text-decoration="none" x="70.5" fill="#4b4b4b" font-size="10pt" font-family="noto_regular"  y="36"></text></g></g><g id="2dmhj35zkq"><g><path d="M 990,775 L 750,815" fill="none" stroke="#5e5ca7" stroke-width="1.5" stroke-linecap="round" stroke-linejoin="round"/></g></g><g id="ai1ndz26bi"><g><path d="M 340,780 L 625,815" fill="none" stroke="#5e5ca7" stroke-width="1.5" stroke-linecap="round" stroke-linejoin="round"/></g></g></svg>